<svg width="601" height="519" viewBox="0 0 601 519" fill="none" xmlns="http://www.w3.org/2000/svg">
<path d="M601 516.264H195.436V517.862H601V516.264Z" fill="#3F3D56"/>
<path d="M525.312 244.519C526.093 245.357 526.672 246.335 527.012 247.391C527.353 248.447 527.447 249.556 527.288 250.646C527.13 251.737 526.722 252.786 526.092 253.723C525.462 254.661 524.623 255.468 523.63 256.09L481.657 282.417L463.175 293.673C462.125 294.313 460.852 294.573 459.605 294.402C458.357 294.231 457.223 293.643 456.424 292.751C455.958 292.23 455.622 291.624 455.437 290.974C455.253 290.323 455.226 289.644 455.357 288.982C455.488 288.321 455.775 287.694 456.198 287.144C456.621 286.594 457.169 286.134 457.805 285.797L475.706 276.301L506.948 249.118L486.864 229.411L501.741 219.217L525.312 244.519Z" fill="#A0616A"/>
<path d="M426.612 492.403H416.345L410.247 414.932L436.282 414.252L426.612 492.403Z" fill="#A0616A"/>
<path d="M427.356 517.547C424.618 518.688 422.325 509.44 420.016 511.513C413.556 517.312 403.665 518.575 395.044 516.043L398.061 516.013C397.541 515.86 397.06 515.612 396.648 515.285C396.235 514.957 395.9 514.556 395.662 514.107C395.424 513.657 395.288 513.169 395.263 512.67C395.238 512.171 395.324 511.673 395.516 511.206C395.746 510.646 396.121 510.146 396.609 509.748C397.097 509.351 397.683 509.067 398.317 508.922L405.187 507.353L415.973 490.024L426.984 489.345C429.438 492.204 431.152 495.534 431.994 499.085C432.837 502.636 432.787 506.315 431.849 509.846C430.85 513.572 429.307 516.733 427.356 517.547Z" fill="#2F2E41"/>
<path d="M494.973 492.403H484.706L478.608 414.932L505.387 410.176L494.973 492.403Z" fill="#A0616A"/>
<path d="M495.717 517.547C492.979 518.688 490.686 509.441 488.377 511.514C481.918 517.313 472.027 518.576 463.405 516.044L466.423 516.013C465.902 515.86 465.421 515.612 465.009 515.285C464.597 514.957 464.261 514.557 464.023 514.107C463.785 513.658 463.65 513.169 463.625 512.67C463.6 512.171 463.686 511.673 463.878 511.206C464.107 510.646 464.482 510.146 464.97 509.749C465.458 509.351 466.045 509.067 466.679 508.922L473.548 507.354L484.334 490.025L496.089 488.666L496.386 489.109C498.658 492.455 500.124 496.205 500.684 500.109C501.244 504.014 500.886 507.982 499.634 511.75C498.656 514.612 497.326 516.876 495.717 517.547Z" fill="#2F2E41"/>
<path d="M506.615 220.97C497.173 222.17 490.636 226.894 487.974 236.317L470.619 207.043C469.59 205.183 469.329 203.046 469.884 201.024C470.44 199.002 471.774 197.231 473.642 196.035C475.626 194.765 478.065 194.236 480.461 194.557C482.858 194.877 485.029 196.023 486.531 197.758L506.615 220.97Z" fill="#501285"/>
<path d="M524.801 406.778C482.604 423.834 439.419 425.933 395.37 414.932C411.455 357.938 430.448 306.403 430.331 264.069L473.475 260.671L480.118 270.292C495.878 293.119 506.757 318.469 512.178 344.999L524.801 406.778Z" fill="#2F2E41"/>
<path d="M454.134 176.405C466.459 176.405 476.45 167.277 476.45 156.018C476.45 144.758 466.459 135.631 454.134 135.631C441.81 135.631 431.819 144.758 431.819 156.018C431.819 167.277 441.81 176.405 454.134 176.405Z" fill="#A0616A"/>
<path d="M478.682 192.034L451.159 193.393L446.696 170.968L469.011 167.57L478.682 192.034Z" fill="#A0616A"/>
<path d="M475.706 264.069L445.554 264.845L430.331 266.787C422.859 244.237 416.568 221.739 431.819 202.908L449.671 186.599L476.45 185.919L476.805 186.104C481.058 188.33 484.354 191.813 486.15 195.979C487.946 200.146 488.134 204.746 486.685 209.024C480.04 228.752 475.771 247.382 475.706 264.069Z" fill="#501285"/>
<path d="M429.587 327.268L427.717 350.621C427.617 351.872 427.025 353.047 426.051 353.931C425.077 354.815 423.787 355.348 422.417 355.431C421.628 355.48 420.836 355.377 420.093 355.13C419.349 354.883 418.67 354.497 418.099 353.997C417.528 353.497 417.077 352.894 416.775 352.226C416.473 351.558 416.327 350.84 416.346 350.117L416.942 327.268L435.538 262.71L436.282 223.295L457.11 222.615L455.622 268.146L429.587 327.268Z" fill="#A0616A"/>
<path d="M459.342 226.013C450.511 222.733 442.264 223.831 434.794 230.77L435.818 197.491C435.946 195.41 436.892 193.441 438.481 191.945C440.07 190.449 442.195 189.526 444.469 189.346C446.881 189.154 449.283 189.812 451.181 191.186C453.079 192.559 454.331 194.544 454.68 196.733L459.342 226.013Z" fill="#501285"/>
<path d="M501.37 246.739H432.935C448.899 208.118 454.047 172.19 432.935 141.407C433.297 132.161 446.278 124.145 456.358 125.031C468.264 126.077 484.262 134.069 486.492 144.804L501.37 246.739Z" fill="#2F2E41"/>
<path d="M283.27 123.334H280.149V45.2138C280.149 39.2762 278.869 33.3968 276.382 27.9112C273.894 22.4256 270.249 17.4412 265.653 13.2428C261.057 9.04427 255.601 5.71385 249.597 3.44165C243.592 1.16946 237.157 -1.77932e-05 230.657 2.03048e-10H49.4914C42.9921 -1.31108e-05 36.5564 1.16947 30.5519 3.44167C24.5473 5.71387 19.0914 9.04429 14.4957 13.2428C9.89999 17.4413 6.25447 22.4256 3.76729 27.9112C1.28012 33.3968 -7.17566e-06 39.2762 0 45.2138V473.786C-5.12547e-06 479.724 1.28012 485.603 3.76729 491.089C6.25447 496.574 9.89999 501.559 14.4957 505.757C19.0914 509.956 24.5473 513.286 30.5519 515.558C36.5564 517.831 42.9921 519 49.4914 519H230.657C237.157 519 243.592 517.831 249.597 515.558C255.601 513.286 261.057 509.956 265.653 505.757C270.249 501.559 273.894 496.574 276.382 491.089C278.869 485.603 280.149 479.724 280.149 473.786V178.941H283.27V123.334Z" fill="#3F3D56"/>
<path d="M232.654 11.7627H209.006C210.094 14.1985 210.509 16.8412 210.215 19.4581C209.921 22.075 208.927 24.5858 207.321 26.7691C205.715 28.9525 203.546 30.7415 201.005 31.9786C198.463 33.2156 195.628 33.8628 192.749 33.863H88.9609C86.0814 33.8628 83.2461 33.2156 80.7049 31.9786C78.1636 30.7415 75.9944 28.9525 74.3882 26.7691C72.7821 24.5858 71.7883 22.075 71.4945 19.4581C71.2006 16.8412 71.6158 14.1985 72.7033 11.7627H50.6159C45.7623 11.7627 40.9562 12.636 36.472 14.3329C31.9879 16.0297 27.9135 18.5169 24.4815 21.6522C21.0495 24.7876 18.327 28.5098 16.4696 32.6064C14.6122 36.703 13.6563 41.0937 13.6562 45.5278V473.471C13.6563 477.906 14.6122 482.296 16.4696 486.393C18.327 490.489 21.0495 494.212 24.4815 497.347C27.9135 500.482 31.9879 502.97 36.472 504.666C40.9562 506.363 45.7623 507.237 50.6159 507.237H232.654C237.508 507.237 242.314 506.363 246.798 504.666C251.282 502.97 255.357 500.482 258.789 497.347C262.221 494.212 264.943 490.489 266.801 486.393C268.658 482.296 269.614 477.906 269.614 473.471V45.5277C269.614 36.5727 265.72 27.9844 258.789 21.6522C251.857 15.3201 242.457 11.7627 232.654 11.7627Z" fill="white"/>
<path d="M237.648 78.6108H45.6216V229.081H237.648V78.6108Z" fill="#E6E6E6"/>
<path d="M102.605 260.459C110.365 260.459 116.656 254.712 116.656 247.622C116.656 240.533 110.365 234.786 102.605 234.786C94.8452 234.786 88.5544 240.533 88.5544 247.622C88.5544 254.712 94.8452 260.459 102.605 260.459Z" fill="#501285"/>
<path d="M109.631 246.554H103.776V241.205H101.435V246.554H95.5801V248.693H101.435V254.041H103.776V248.693H109.631V246.554Z" fill="white"/>
<path d="M176.762 260.459C184.522 260.459 190.813 254.712 190.813 247.622C190.813 240.533 184.522 234.786 176.762 234.786C169.002 234.786 162.711 240.533 162.711 247.622C162.711 254.712 169.002 260.459 176.762 260.459Z" fill="#501285"/>
<path d="M183.787 248.692V246.553H169.737V248.692H183.787Z" fill="white"/>
<path d="M237.648 290.41H45.6216V440.88H237.648V290.41Z" fill="#E6E6E6"/>
<path d="M102.605 472.259C110.365 472.259 116.656 466.512 116.656 459.422C116.656 452.333 110.365 446.586 102.605 446.586C94.8452 446.586 88.5544 452.333 88.5544 459.422C88.5544 466.512 94.8452 472.259 102.605 472.259Z" fill="#501285"/>
<path d="M109.631 458.352H103.776V453.004H101.435V458.352H95.5801V460.492H101.435V465.84H103.776V460.492H109.631V458.352Z" fill="white"/>
<path d="M176.762 472.259C184.522 472.259 190.813 466.512 190.813 459.422C190.813 452.333 184.522 446.586 176.762 446.586C169.002 446.586 162.711 452.333 162.711 459.422C162.711 466.512 169.002 472.259 176.762 472.259Z" fill="#501285"/>
<path d="M183.787 460.492V458.353H169.737V460.492H183.787Z" fill="white"/>
<path d="M82 129V157C82 165.836 108.779 173 141.812 173C174.846 173 201.625 165.836 201.625 157V129L141.812 117L82 129Z" fill="#FCBC04"/>
<path d="M112.938 159V131L82 129V157C82 165.836 108.779 173 141.812 173C142.448 173 143.077 173 143.708 172.988C125.358 170.254 112.938 165.016 112.938 159Z" fill="#E59730"/>
<path d="M141.812 127L189.25 138.742C197.007 136.044 201.625 132.668 201.625 129C201.625 120.164 174.846 113 141.812 113C108.779 113 82 120.164 82 129C82 137.836 108.779 145 141.812 145C147.588 145 153.156 144.776 158.444 144.368L141.812 127Z" fill="#F9E109"/>
<path d="M188.043 138.446L141.812 127L158.444 144.368H158.312V172.368C168.828 171.765 179.223 169.873 189.25 166.74V139L188.043 138.446Z" fill="#E59730"/>
<path d="M162.438 149C164.716 149 166.562 147.209 166.562 145C166.562 142.791 164.716 141 162.438 141C160.159 141 158.312 142.791 158.312 145C158.312 147.209 160.159 149 162.438 149Z" fill="#B27525"/>
<path d="M176.875 161C179.153 161 181 159.209 181 157C181 154.791 179.153 153 176.875 153C174.597 153 172.75 154.791 172.75 157C172.75 159.209 174.597 161 176.875 161Z" fill="#B27525"/>
<path d="M141.748 164.652C141.107 164.875 140.431 164.993 139.75 165C138.351 165.004 136.993 164.548 135.897 163.705C134.801 162.863 134.033 161.684 133.718 160.363C133.403 159.041 133.561 157.655 134.165 156.432C134.769 155.209 135.783 154.221 137.042 153.63L132.688 143.43C132.261 143.971 131.699 144.398 131.054 144.669C130.41 144.94 129.705 145.048 129.005 144.98C128.306 144.913 127.636 144.674 127.059 144.286C126.482 143.897 126.017 143.372 125.708 142.761C125.398 142.149 125.255 141.471 125.292 140.79C125.329 140.11 125.544 139.45 125.918 138.873C126.292 138.296 126.811 137.821 127.427 137.493C128.043 137.165 128.735 136.996 129.437 137C129.612 137.006 129.787 137.023 129.959 137.052L127.375 131H115V159.97L104.04 185.628C107.167 188.667 110.895 191.063 115 192.672V195H127.375C131.709 195.006 136.002 194.181 140.007 192.572C144.012 190.964 147.649 188.604 150.71 185.628L141.748 164.652Z" fill="#F9E109"/>
<path d="M104.042 185.628C107.168 188.668 110.895 191.064 115 192.672V195H127.375C131.709 195.006 136.002 194.18 140.006 192.572C144.01 190.964 147.647 188.604 150.708 185.628H104.042Z" fill="#E59730"/>
<path d="M115 131L104.543 155.48C105.36 155.893 106.01 156.561 106.389 157.375C106.768 158.19 106.853 159.104 106.632 159.971C106.411 160.838 105.896 161.609 105.169 162.158C104.442 162.707 103.546 163.004 102.625 163C102.213 162.993 101.805 162.926 101.414 162.8L91.6648 185.628C94.7291 188.6 98.3671 190.957 102.371 192.565C106.375 194.173 110.666 195.001 115 195.001C119.334 195.001 123.625 194.173 127.629 192.565C131.633 190.957 135.271 188.6 138.335 185.628L115 131Z" fill="#FCBC04"/>
<path d="M121.188 187C123.466 187 125.312 185.209 125.312 183C125.312 180.791 123.466 179 121.188 179C118.909 179 117.062 180.791 117.062 183C117.062 185.209 118.909 187 121.188 187Z" fill="#E59730"/>
<path d="M104.688 185C106.966 185 108.812 183.209 108.812 181C108.812 178.791 106.966 177 104.688 177C102.409 177 100.562 178.791 100.562 181C100.562 183.209 102.409 185 104.688 185Z" fill="#E59730"/>
<path d="M117.062 171C119.341 171 121.188 169.209 121.188 167C121.188 164.791 119.341 163 117.062 163C114.784 163 112.938 164.791 112.938 167C112.938 169.209 114.784 171 117.062 171Z" fill="#E59730"/>
<path d="M115 155C116.139 155 117.062 154.105 117.062 153C117.062 151.895 116.139 151 115 151C113.861 151 112.938 151.895 112.938 153C112.938 154.105 113.861 155 115 155Z" fill="#E59730"/>
<path d="M137.688 175C138.827 175 139.75 174.105 139.75 173C139.75 171.895 138.827 171 137.688 171C136.548 171 135.625 171.895 135.625 173C135.625 174.105 136.548 175 137.688 175Z" fill="#E59730"/>
<path d="M176.875 147C178.014 147 178.938 146.105 178.938 145C178.938 143.895 178.014 143 176.875 143C175.736 143 174.812 143.895 174.812 145C174.812 146.105 175.736 147 176.875 147Z" fill="#B27525"/>
<path d="M166.562 165C167.702 165 168.625 164.105 168.625 163C168.625 161.895 167.702 161 166.562 161C165.423 161 164.5 161.895 164.5 163C164.5 164.105 165.423 165 166.562 165Z" fill="#B27525"/>
<path d="M163.468 343.141L145.518 341.765L149.936 331.604L137.499 321L130.114 322.05C125.237 322.741 120.546 324.068 116.167 325.987L113.609 327.11L114.803 329.344C115.162 330.012 115.342 330.728 115.342 331.474C115.342 334.311 112.634 336.62 109.307 336.62C107.969 336.62 106.708 336.255 105.653 335.57L103.366 334.077L101.512 335.957C96.3729 341.16 92.6267 347.443 91 354.629L139.482 366.537L194 369L163.468 343.141Z" fill="#FEDB41"/>
<path d="M191.987 383.676L194 383.069V369.414L91 355V393.267L109.05 396.129L109.327 393.277C109.581 390.623 112.224 388.545 115.342 388.545C118.669 388.545 121.377 390.86 121.377 393.705C121.377 394.204 121.294 394.698 121.13 395.167L120.134 398.034L152.162 401.933L163.623 393.705L173.681 404.552L194 407V394.02L191.987 393.413C190.588 392.99 189.421 392.14 188.705 391.024C188.212 390.258 187.965 389.424 187.965 388.545C187.965 386.362 189.583 384.404 191.987 383.676Z" fill="#FCBF29"/>
<path d="M142.5 388.892C137.508 388.892 133.447 385.388 133.447 381.08C133.447 376.772 137.508 373.268 142.5 373.268C147.492 373.268 151.553 376.772 151.553 381.08C151.553 385.388 147.492 388.892 142.5 388.892Z" fill="#FE9923"/>
<path d="M163.623 388.892C158.743 388.892 154.373 391.402 152.487 395.287C151.375 397.578 151.343 400.026 152.162 402.403L173.681 405.046C174.947 403.399 175.693 401.429 175.693 399.308C175.693 393.563 170.28 388.892 163.623 388.892Z" fill="#FE9923"/>
<path d="M115.342 368.059C108.685 368.059 103.271 363.388 103.271 357.643C103.271 351.898 108.685 347.227 115.342 347.227C121.999 347.227 127.412 351.898 127.412 357.643C127.412 363.388 121.999 368.059 115.342 368.059Z" fill="#FE9923"/>
<path d="M140 341.937C140 347.487 145.191 352 151.574 352C156.005 352 159.981 349.855 161.95 346.401C162.518 345.404 162.837 344.352 163 343.282L150.024 332C148.794 332.143 147.586 332.421 146.44 332.915C142.467 334.628 140 338.084 140 341.937Z" fill="#FEA832"/>
</svg>
